# xmcd
#
# Track frame offsets:
#	150
#	14151
#	35420
#	53688
#	81631
#	96869
#	120331
#	142898
#	166065
#	196982
#
# Disc length: 3052 seconds
#
# Revision: 1
# Processed by: cddbd v1.5.1PL2 Copyright (c) Steve Scherf et al.
# Submitted via: audiograbber 1.83.01
#
DISCID=7e0bea0a
DTITLE=Burning Man Blues Band - Burning Man
DYEAR=1900
DGENRE=Blues
TTITLE0=Mean Old Daddy
TTITLE1=Help Me
TTITLE2=Mojo Boogie
TTITLE3=Emotional Rescue
TTITLE4=Bad Day
TTITLE5=Mustang Sally
TTITLE6=T-Bone Shuffle
TTITLE7=Never Make Your Move Too Soon
TTITLE8=Five Long Years
TTITLE9=Let The Good Times Roll
EXTD=
EXTT0=
EXTT1=
EXTT2=
EXTT3=
EXTT4=
EXTT5=
EXTT6=
EXTT7=
EXTT8=
EXTT9=
PLAYORDER=
